<?xml version="1.0" encoding="UTF-8"?><svg id="Layer_1" xmlns="http://www.w3.org/2000/svg" viewBox="0 0 408.09 568.08"><defs><style>.cls-1{font-family:CascadiaCodeRoman-ExtraLight, 'Cascadia Code';font-size:60px;font-variation-settings:'wght' 200;font-weight:200;}</style></defs><text class="cls-1" transform="translate(372.93 50.8)"><tspan x="0" y="0">™</tspan></text><path d="M367.75,254.23c-1.95-36.89-5.13-53.61-7.02-62.43-3.19-14.9-7.9-36.23-20.29-61.64-7.66-15.72-20.31-41.02-46.82-63.99-11.64-10.08-22.61-16.82-30.43-21.07-.14-.08-.28-.15-.42-.23h96.16V6.71H114.77c-.71-.08-1.41-.15-2.1-.23H24.49v.23h-.2V44.88h63.2c3.38,.19,6.58,.4,9.57,.62,36.26,2.65,113.63,9,159.88,46.43,12.75,10.32,23.41,22.63,23.41,22.63,6.56,7.79,15.44,19.5,23.74,35-2.56-2.09-5.25-4.14-8.11-6.15-3.73-2.62-14.63-9.99-30.3-16.31-16.38-6.6-29.91-8.79-40.32-10.41-15.44-2.4-27.86-2.6-34.42-2.54-9.48,.09-17.13,.83-21.57,1.26,0,0-11.32,1.11-20.89,2.86-38,6.94-66.9,27.67-66.9,27.67-5.58,4.37-10.44,8.5-14.66,12.4-1.66-9.68-2.99-20.85-3.42-33.26-.43-12.17,.08-23.2,1.02-32.83-13.47,.56-26.94,1.11-40.41,1.67-2.26,36.02,1.95,65.2,6.24,85.05,2.98,13.76,6.92,31.5,17.17,53.06,5.27,11.09,15.59,32.36,36.67,53.84,3.65,3.72,16.47,16.46,37.27,28.9-40.28,.42-80.56,.83-120.84,1.25-2.26,36.02,1.95,65.2,6.24,85.05,2.98,13.76,6.92,31.5,17.17,53.06,5.27,11.09,15.59,32.36,36.67,53.84,5.09,5.19,28.02,27.93,65.55,42.92,24.25,9.69,44.89,12.26,63.76,14.62,20.11,2.51,35.78,2.55,45.17,2.54,27.25-.02,47.8-2.81,61.18-4.68,14.24-1.99,32.01-5.09,52.28-10.14-2.08-12.75-4.16-25.49-6.24-38.24-4.31,.88-10.8,2.22-18.73,3.9-11.01,2.33-13.87,3.01-18.73,3.9-8.72,1.6-15.63,2.36-23.41,3.12-27.78,2.72-41.66,4.08-52.08,3.96-6.5-.07-26.02-.59-49.62-6.36-19.01-4.65-54.76-13.39-86.36-43.64-17.97-17.2-28.1-35.15-32.77-44.48-7.49-14.94-10.91-27.73-13.27-36.67-4.65-17.65-6.38-33.03-7.02-44.48,53.47-.97,106.94-1.93,160.41-2.9,54.83-.19,109.65-.39,164.48-.58,.03-.19,.05-.39,.08-.59h2.35c2.02-39.03,1.29-71.66,0-95.98ZM86.14,199.22c3.02-9.05,11.83-15.25,22.17-22.73,9.69-7.01,19.77-11.38,22.9-12.72,13.19-5.65,23.94-7.62,31.17-8.91,24.2-4.29,43.6-2.23,50.89-1.27,10.55,1.39,24.89,3.4,41.35,11.45,9.86,4.82,17.03,10.12,20.36,12.72,2.02,1.58,9.25,7.34,17.18,16.54,2,2.33,6.91,8.19,12.09,16.54,13.41,21.62,17.73,42.22,19.72,52.17,1.87,9.36,2.62,17.08,3.18,22.9,.72,7.48,1.06,14.22,1.2,20.03-8.5,2.06-19.79,4.31-33.09,5.65-51.56,5.2-110.74-5.57-154.45-34.56-.02-.19-.03-.37-.05-.56-4.03-2.63-9.53-6.5-15.61-11.7-2.3-1.97-7.2-6.17-12.82-11.76-11.36-12.22-19.61-24.85-24.13-32.49-3.11-7.27-4.31-14.61-2.07-21.3Z"/></svg>